# Blender v2.69 (sub 0) OBJ File: 'bullet.blend'
# www.blender.org
mtllib bullet.mtl
o Bullet
v -0.000000 -0.000000 -0.600000
v -0.000000 -0.141421 -0.400000
v -0.141421 -0.000000 -0.400000
v 0.141421 0.000000 -0.400000
v -0.000000 0.141421 -0.400000
v -0.000000 0.000000 0.000000
vn -0.632455 -0.632456 -0.447214
vn 0.632455 0.632456 -0.447214
vn 0.632456 -0.632455 -0.447213
vn 0.685994 0.685994 0.242536
vn -0.632456 0.632455 -0.447214
vn -0.685994 0.685994 0.242536
vn 0.685994 -0.685994 0.242536
vn -0.685994 -0.685994 0.242536
usemtl [player]
s off
f 1//1 2//1 3//1
f 1//2 5//2 4//2
f 1//3 4//3 2//3
f 4//4 5//4 6//4
f 3//5 5//5 1//5
f 5//6 3//6 6//6
f 2//7 4//7 6//7
f 3//8 2//8 6//8
