# Blender v2.69 (sub 0) OBJ File: 'floor.blend'
# www.blender.org
mtllib floor.mtl
o Floor
v 1.000000 0.000000 1.000000
v -1.000000 0.000000 1.000000
v 1.000000 0.000000 -1.000000
v -1.000000 0.000000 -1.000000
v 1.000000 2.000000 1.000000
v -1.000000 2.000000 1.000000
v 1.000000 2.000000 -1.000000
v -1.000000 2.000000 -1.000000
v 0.833333 2.100000 0.833333
v -0.833333 2.100000 0.833333
v 0.833333 2.100000 -0.833333
v -0.833333 2.100000 -0.833333
v -0.833333 2.000000 0.833333
v 0.833333 2.000000 0.833333
v -0.833333 2.000000 -0.833333
v 0.833333 2.000000 -0.833333
vn 0.000000 1.000000 0.000000
vn 0.000000 0.000000 -1.000000
vn 1.000000 0.000000 0.000000
vn 0.000000 0.000000 1.000000
vn -1.000000 0.000000 0.000000
vn 0.000000 -1.000000 0.000000
usemtl wallBase
s off
f 2//1 1//1 3//1 4//1
f 14//2 13//2 10//2 9//2
f 13//3 15//3 12//3 10//3
f 15//4 16//4 11//4 12//4
f 16//5 14//5 9//5 11//5
f 5//6 6//6 13//6 14//6
f 15//6 13//6 6//6 8//6
f 8//6 7//6 16//6 15//6
f 7//6 5//6 14//6 16//6
usemtl wallDepth
f 9//6 10//6 12//6 11//6
